<mxfile host="app.diagrams.net" agent="Mozilla/5.0 (Windows NT 10.0; Win64; x64) AppleWebKit/537.36 (KHTML, like Gecko) Chrome/127.0.0.0 Safari/537.36" version="24.7.7">
  <diagram name="Página-1" id="JFeGrG3t-lPUXzw-eux_">
    <mxGraphModel dx="1332" dy="1709" grid="1" gridSize="10" guides="1" tooltips="1" connect="1" arrows="1" fold="1" page="1" pageScale="1" pageWidth="827" pageHeight="1169" math="0" shadow="0">
      <root>
        <mxCell id="0" />
        <mxCell id="1" parent="0" />
        <mxCell id="YhBTjDBFEYSkCGFQt0wk-8" value="List" style="swimlane;fontStyle=0;childLayout=stackLayout;horizontal=1;startSize=30;horizontalStack=0;resizeParent=1;resizeParentMax=0;resizeLast=0;collapsible=1;marginBottom=0;whiteSpace=wrap;html=1;" vertex="1" parent="1">
          <mxGeometry x="120" y="30" width="140" height="120" as="geometry" />
        </mxCell>
        <mxCell id="YhBTjDBFEYSkCGFQt0wk-9" value="Item 1" style="text;strokeColor=none;fillColor=none;align=left;verticalAlign=middle;spacingLeft=4;spacingRight=4;overflow=hidden;points=[[0,0.5],[1,0.5]];portConstraint=eastwest;rotatable=0;whiteSpace=wrap;html=1;" vertex="1" parent="YhBTjDBFEYSkCGFQt0wk-8">
          <mxGeometry y="30" width="140" height="30" as="geometry" />
        </mxCell>
        <mxCell id="YhBTjDBFEYSkCGFQt0wk-10" value="Item 2" style="text;strokeColor=none;fillColor=none;align=left;verticalAlign=middle;spacingLeft=4;spacingRight=4;overflow=hidden;points=[[0,0.5],[1,0.5]];portConstraint=eastwest;rotatable=0;whiteSpace=wrap;html=1;" vertex="1" parent="YhBTjDBFEYSkCGFQt0wk-8">
          <mxGeometry y="60" width="140" height="30" as="geometry" />
        </mxCell>
        <mxCell id="YhBTjDBFEYSkCGFQt0wk-11" value="Item 3" style="text;strokeColor=none;fillColor=none;align=left;verticalAlign=middle;spacingLeft=4;spacingRight=4;overflow=hidden;points=[[0,0.5],[1,0.5]];portConstraint=eastwest;rotatable=0;whiteSpace=wrap;html=1;" vertex="1" parent="YhBTjDBFEYSkCGFQt0wk-8">
          <mxGeometry y="90" width="140" height="30" as="geometry" />
        </mxCell>
        <mxCell id="YhBTjDBFEYSkCGFQt0wk-16" value="EcoRecicla" style="swimlane;whiteSpace=wrap;html=1;" vertex="1" parent="1">
          <mxGeometry x="300" y="100" width="240" height="240" as="geometry" />
        </mxCell>
        <mxCell id="YhBTjDBFEYSkCGFQt0wk-19" value="&lt;span style=&quot;white-space: pre;&quot;&gt;&#x9;&lt;/span&gt;Pantalla de registrase." style="text;html=1;align=center;verticalAlign=middle;resizable=0;points=[];autosize=1;strokeColor=none;fillColor=none;" vertex="1" parent="YhBTjDBFEYSkCGFQt0wk-16">
          <mxGeometry x="30" y="50" width="170" height="30" as="geometry" />
        </mxCell>
        <mxCell id="YhBTjDBFEYSkCGFQt0wk-18" value="Pantalla&amp;nbsp; inicio de sesión.&lt;div&gt;&lt;br&gt;&lt;/div&gt;" style="text;html=1;align=center;verticalAlign=middle;resizable=0;points=[];autosize=1;strokeColor=none;fillColor=none;" vertex="1" parent="YhBTjDBFEYSkCGFQt0wk-16">
          <mxGeometry x="50" y="20" width="160" height="40" as="geometry" />
        </mxCell>
        <mxCell id="YhBTjDBFEYSkCGFQt0wk-20" value="Pantalla de menú principal." style="text;html=1;align=center;verticalAlign=middle;resizable=0;points=[];autosize=1;strokeColor=none;fillColor=none;" vertex="1" parent="YhBTjDBFEYSkCGFQt0wk-16">
          <mxGeometry x="40" y="80" width="170" height="30" as="geometry" />
        </mxCell>
        <mxCell id="YhBTjDBFEYSkCGFQt0wk-21" value="&lt;span style=&quot;white-space: pre;&quot;&gt;&#x9;&lt;/span&gt;Pantalla de concejos." style="text;html=1;align=center;verticalAlign=middle;resizable=0;points=[];autosize=1;strokeColor=none;fillColor=none;" vertex="1" parent="YhBTjDBFEYSkCGFQt0wk-16">
          <mxGeometry x="35" y="110" width="160" height="30" as="geometry" />
        </mxCell>
        <mxCell id="YhBTjDBFEYSkCGFQt0wk-23" value="Pantalla de tipos de reciclaje." style="text;html=1;align=center;verticalAlign=middle;resizable=0;points=[];autosize=1;strokeColor=none;fillColor=none;" vertex="1" parent="YhBTjDBFEYSkCGFQt0wk-16">
          <mxGeometry x="35" y="140" width="180" height="30" as="geometry" />
        </mxCell>
        <mxCell id="YhBTjDBFEYSkCGFQt0wk-24" value="Pantalla de registro reciclaje." style="text;html=1;align=center;verticalAlign=middle;resizable=0;points=[];autosize=1;strokeColor=none;fillColor=none;" vertex="1" parent="YhBTjDBFEYSkCGFQt0wk-16">
          <mxGeometry x="35" y="170" width="180" height="30" as="geometry" />
        </mxCell>
        <mxCell id="YhBTjDBFEYSkCGFQt0wk-27" value="Pantalla inicio sesión" style="swimlane;whiteSpace=wrap;html=1;" vertex="1" parent="1">
          <mxGeometry x="710" y="-30" width="200" height="200" as="geometry" />
        </mxCell>
      </root>
    </mxGraphModel>
  </diagram>
</mxfile>
